<?xml version="1.0" encoding="UTF-8"?> <svg xmlns="http://www.w3.org/2000/svg" id="Icons" viewBox="0 0 32 32" xml:space="preserve"> <path d="M16 14c-2.8 0-5.1 1.9-5.8 4.4l2.1.8c1.1.4 2.2.4 3.3-.1 1.5-.8 3.3-.8 4.9-.2l1.5.6c-.3-3.1-2.9-5.5-6-5.5z" fill="#3166ff" class="fill-000000"></path> <path d="M26 0H6C4.3 0 3 1.3 3 3v26c0 1.7 1.3 3 3 3h20c1.7 0 3-1.3 3-3V3c0-1.7-1.3-3-3-3zm-5.7 6.3c.1-.1.2-.2.3-.2.4-.2.8-.1 1.1.2.2.2.3.4.3.7v.2c0 .1 0 .1-.1.2 0 .1-.1.1-.1.2l-.1.1c-.2.2-.4.3-.7.3-.1 0-.3 0-.4-.1-.1-.1-.2-.1-.3-.2-.2-.2-.3-.4-.3-.7 0-.3.1-.5.3-.7zm-3 0c.1-.1.2-.2.3-.2.4-.2.8-.1 1.1.2.2.2.3.4.3.7v.2c0 .1 0 .1-.1.2 0 .1-.1.1-.1.2l-.1.1c-.2.2-.4.3-.7.3-.1 0-.3 0-.4-.1-.1-.1-.2-.1-.3-.2-.2-.2-.3-.4-.3-.7 0-.3.1-.5.3-.7zM7 7c0-1.7 1.3-3 3-3s3 1.3 3 3-1.3 3-3 3-3-1.3-3-3zm9 21c-4.4 0-8-3.6-8-8s3.6-8 8-8 8 3.6 8 8-3.6 8-8 8zm9-20.8c0 .1 0 .1-.1.2 0 .1-.1.1-.1.2l-.1.1c-.2.2-.4.3-.7.3-.1 0-.3 0-.4-.1-.1-.1-.2-.1-.3-.2-.2-.2-.3-.4-.3-.7 0-.3.1-.5.3-.7.1-.1.2-.2.3-.2.4-.2.8-.1 1.1.2.2.2.3.4.3.7v.2z" fill="#3166ff" class="fill-000000"></path> </svg> 